<?xml version="1.0" encoding="utf-8"?>
<!-- Generator: Adobe Illustrator 19.2.0, SVG Export Plug-In . SVG Version: 6.00 Build 0)  -->
<svg version="1.1" id="Layer_1" xmlns="http://www.w3.org/2000/svg" xmlns:xlink="http://www.w3.org/1999/xlink" x="0px" y="0px"
	 viewBox="0 0 350 350" style="enable-background:new 0 0 350 350;" xml:space="preserve">
<style type="text/css">
	.st0{fill:#F1F1F1;}
	.st1{fill:#CD2026;}
</style>
<g id="Layer_1_1_">
	<rect class="st0" width="350" height="350"/>
</g>
<g>
	<path class="st1" d="M123.2,52.1c16.5-7,33.8-10.6,51.8-10.6s35.4,3.5,51.8,10.6c16.5,7,30.7,16.5,42.6,28.4
		c11.9,11.9,21.4,26.1,28.4,42.6c7,16.5,10.6,33.8,10.6,51.8s-3.5,35.4-10.6,51.8c-7,16.5-16.5,30.7-28.4,42.6
		c-11.9,11.9-26.1,21.4-42.6,28.4c-16.5,7-33.8,10.6-51.8,10.6s-35.4-3.5-51.8-10.6c-16.5-7-30.7-16.5-42.6-28.4
		s-21.4-26.1-28.4-42.6C45,210.4,41.5,193.1,41.5,175s3.5-35.4,10.6-51.8c7-16.5,16.5-30.7,28.4-42.6S106.7,59.2,123.2,52.1z
		 M74,228.8l28.9-28.9c-2.8-8.1-4.2-16.4-4.2-24.9s1.4-16.7,4.2-24.9L74,121.2c-8.9,17-13.4,34.9-13.4,53.8S65.1,211.8,74,228.8z
		 M134.6,215.4c11.2,11.2,24.6,16.8,40.4,16.8s29.3-5.6,40.4-16.8c11.2-11.2,16.8-24.6,16.8-40.4s-5.6-29.3-16.8-40.5
		c-11.2-11.2-24.6-16.7-40.4-16.7s-29.3,5.6-40.4,16.7c-11.2,11.2-16.8,24.7-16.8,40.5S123.4,204.3,134.6,215.4z M175,60.6
		c-18.9,0-36.8,4.5-53.8,13.4l28.9,28.9c8.1-2.8,16.4-4.2,24.9-4.2s16.7,1.4,24.9,4.2L228.8,74C211.8,65.1,193.9,60.6,175,60.6z
		 M175,289.4c18.9,0,36.8-4.5,53.8-13.4l-28.9-28.9c-8.1,2.8-16.4,4.2-24.9,4.2s-16.7-1.4-24.9-4.2L121.2,276
		C138.2,284.9,156.1,289.4,175,289.4z M247.1,199.9l28.9,28.9c8.9-17,13.4-34.9,13.4-53.8s-4.5-36.8-13.4-53.8l-28.9,28.9
		c2.8,8.1,4.2,16.4,4.2,24.9S249.9,191.7,247.1,199.9z"/>
</g>
</svg>
