<?xml version="1.0" encoding="utf-8"?>
<!-- Generator: Adobe Illustrator 19.2.0, SVG Export Plug-In . SVG Version: 6.00 Build 0)  -->
<svg version="1.1" id="Layer_1" xmlns="http://www.w3.org/2000/svg" xmlns:xlink="http://www.w3.org/1999/xlink" x="0px" y="0px"
	 viewBox="0 0 50 50" style="enable-background:new 0 0 50 50;" xml:space="preserve">
<style type="text/css">
	.st0{fill:#333333;}
</style>
<g>
	<path class="st0" d="M46.6,12.5c2.2,3.8,3.4,8,3.4,12.5s-1.1,8.7-3.4,12.5c-2.2,3.8-5.3,6.9-9.1,9.1c-3.8,2.2-8,3.4-12.5,3.4
		c-4.5,0-8.7-1.1-12.5-3.4c-3.8-2.2-6.9-5.3-9.1-9.1C1.1,33.7,0,29.5,0,25s1.1-8.7,3.4-12.5c2.2-3.8,5.3-6.9,9.1-9.1
		C16.3,1.1,20.5,0,25,0c4.5,0,8.7,1.1,12.5,3.4C41.4,5.6,44.4,8.6,46.6,12.5z M41.8,19.7c0-0.6-0.2-1.1-0.6-1.5l-3-2.9
		c-0.4-0.4-0.9-0.6-1.5-0.6s-1.1,0.2-1.5,0.6L22,28.5l-7.4-7.4c-0.4-0.4-0.9-0.6-1.5-0.6c-0.6,0-1.1,0.2-1.5,0.6l-3,2.9
		c-0.4,0.4-0.6,0.9-0.6,1.5c0,0.6,0.2,1.1,0.6,1.5l11.8,11.8c0.4,0.4,0.9,0.6,1.5,0.6c0.6,0,1.1-0.2,1.5-0.6l17.7-17.7
		C41.6,20.8,41.8,20.3,41.8,19.7z"/>
</g>
</svg>
